<svg class="svg-icon" style="width: 1em;height: 1em;vertical-align: middle;fill: currentColor;overflow: hidden;" viewBox="0 0 1024 1024" version="1.1" xmlns="http://www.w3.org/2000/svg"><path d="M358.4 153.6l51.2-51.2h409.6a51.2 51.2 0 0 1 51.2 51.2v665.6a51.2 51.2 0 0 1-51.2 51.2H256a51.2 51.2 0 0 1-51.2-51.2V307.2l153.6-153.6z" fill="#FFBA00" /><path d="M409.6 358.4V153.6h358.4a51.2 51.2 0 0 1 51.2 51.2v665.6a51.2 51.2 0 0 1-51.2 51.2H204.8a51.2 51.2 0 0 1-51.2-51.2V358.4h256z" fill="#6B57FE" /><path d="M409.6 102.4v256H153.6z" fill="#FFBA00" /><path d="M577.024 581.632l-20.224 69.3248-65.024-222.9248c-7.168-24.576-41.984-24.576-49.152 0L403.2 563.2H332.8a25.6 25.6 0 1 0 0 51.2h89.6a25.6 25.6 0 0 0 24.576-18.432l20.224-69.3248 65.024 222.9248c7.168 24.576 41.984 24.576 49.152 0l39.424-135.168H691.2a25.6 25.6 0 1 0 0-51.2h-89.6a25.6 25.6 0 0 0-24.576 18.432z" fill="#9486FF" /><path d="M551.424 556.032l-20.224 69.3248-65.024-222.9248c-7.168-24.576-41.984-24.576-49.152 0l-39.424 135.168H307.2a25.6 25.6 0 1 0 0 51.2h89.6a25.6 25.6 0 0 0 24.576-18.432l20.224-69.3248 65.024 222.9248c7.168 24.576 41.984 24.576 49.152 0l39.424-135.168H665.6a25.6 25.6 0 1 0 0-51.2h-89.6a25.6 25.6 0 0 0-24.576 18.432z" fill="#FFFFFF" /></svg>