<svg class="svg-icon" style="width: 1em; height: 1em;vertical-align: middle;fill: currentColor;overflow: hidden;" viewBox="0 0 1024 1024" version="1.1" xmlns="http://www.w3.org/2000/svg"><path d="M967.886 135.936v495.878H56.112V135.936H967.886zM823.922 359.88v-95.976h-63.984v-31.992h-63.984l-15.996 31.992v95.976h143.964z m-55.984 239.942l-31.992-47.988h-28.79l12.792-63.984h-79.98l12.792 63.984h-44.786v15.996l-39.992-79.98-39.988 79.98v-15.996h-39.99c11.676-15.684 10.56-38.068-3.678-52.314-15.676-15.514-40.952-15.514-56.626 0-14.238 14.246-15.356 36.63-3.678 52.314h-39.99v-63.984h-79.98v63.984h-15.996l-31.992 47.988h511.874zM583.98 359.88v-95.976h-63.984v-31.992h-63.982l-15.996 31.992v95.976h143.962z m-239.938 0v-95.976h-63.984v-31.992h-63.984l-15.996 31.992v95.976h143.964z" fill="#5D9CEC" /><path d="M967.886 135.936v495.878H56.112V135.936H967.886zM823.922 359.88v-95.976h-63.984v-31.992h-63.984l-15.996 31.992v95.976h143.964z m-55.984 239.942l-31.992-47.988h-28.79l12.792-63.984h-79.98l12.792 63.984h-44.786v15.996l-39.992-79.98-39.988 79.98v-15.996h-39.99c11.676-15.684 10.56-38.068-3.678-52.314-15.676-15.514-40.952-15.514-56.626 0-14.238 14.246-15.356 36.63-3.678 52.314h-39.99v-63.984h-79.98v63.984h-15.996l-31.992 47.988h511.874zM583.98 359.88v-95.976h-63.984v-31.992h-63.982l-15.996 31.992v95.976h143.962z m-239.938 0v-95.976h-63.984v-31.992h-63.984l-15.996 31.992v95.976h143.964z" fill="#FFFFFF" /><path d="M735.946 551.834l31.992 47.988H256.064l31.992-47.988h15.996v15.996h79.98v-15.996h39.99c1.116 1.438 2.242 2.876 3.678 4.31 15.676 15.528 40.952 15.528 56.626 0 1.438-1.436 2.562-2.874 3.678-4.31h39.99v15.996h79.98v-15.996h44.786l3.204 15.996h47.988l3.204-15.996h28.79z" fill="#D7E9FF" /><path d="M384.032 551.834v15.996h-79.98v-79.98h79.98z" fill="#94C1FF" /><path d="M320.048 487.85h-15.996v79.98h15.996v-15.996z" fill="#D7E9FF" /><path d="M484.328 499.52c14.238 14.246 15.356 36.63 3.678 52.314h-0.156c-1.124 1.438-2.242 2.876-3.524 4.31-15.676 15.528-40.952 15.528-56.626 0-1.282-1.436-2.398-2.874-3.522-4.31h-0.156c-11.678-15.684-10.56-38.068 3.678-52.314 15.676-15.514 40.952-15.514 56.628 0z" fill="#94C1FF" /><path d="M443.696 556.144c-1.282-1.436-2.398-2.874-3.522-4.31h-0.156c-11.678-15.684-10.56-38.068 3.678-52.314a40.202 40.202 0 0 1 20.316-10.81c-12.716-2.562-26.416 1.016-36.312 10.81-14.238 14.246-15.356 36.63-3.678 52.314h0.156c1.124 1.438 2.24 2.876 3.522 4.31 9.896 9.794 23.596 13.374 36.312 10.81a39.946 39.946 0 0 1-20.316-10.81z" fill="#D7E9FF" /><path d="M719.95 487.85l-12.794 63.984-3.202 15.996h-47.99l-3.202-15.996-12.794-63.984z" fill="#94C1FF" /><path d="M655.964 487.85h-15.996l12.794 63.984 3.202 15.996h15.996l-3.202-15.996z" fill="#D7E9FF" /><path d="M567.984 487.85l39.992 79.98h-79.98z" fill="#94C1FF" /><path d="M567.984 487.85l-39.988 79.98h15.996l31.992-63.984zM56.112 103.944h63.984v31.992H56.112zM120.096 103.944H184.08v31.992H120.096zM184.082 103.944h63.984v31.992H184.082zM248.066 103.944h63.984v31.992h-63.984zM312.05 103.944h63.984v31.992h-63.984zM376.034 103.944h351.912v31.992H376.034zM935.894 103.944h31.992v31.992h-31.992zM903.902 103.944h31.992v31.992h-31.992zM855.914 103.944h47.988v31.992h-47.988zM823.922 103.944h31.992v31.992h-31.992zM791.93 103.944h31.992v31.992h-31.992zM759.938 103.944h31.992v31.992h-31.992zM727.946 103.944h31.992v31.992h-31.992z" fill="#D7E9FF" /><path d="M759.938 231.912v31.992h-79.98l15.996-31.992z" fill="#5C9EFF" /><path d="M823.922 263.904v95.976h-143.964v-95.976h79.98z" fill="#94C1FF" /><path d="M280.058 231.912v31.992h-79.98l15.996-31.992zM519.996 231.912v31.992h-79.978l15.996-31.992z" fill="#5C9EFF" /><path d="M583.98 263.904v95.976h-143.962v-95.976h79.978zM344.042 263.904v95.976h-143.964v-95.976h79.98z" fill="#94C1FF" /><path d="M232.07 231.912h-15.996l-15.996 31.992v95.976h15.996v-95.976zM472.01 231.912h-15.996l-15.996 31.992v95.976h15.996v-95.976zM711.95 231.912h-15.996l-15.996 31.992v95.976h15.996v-95.976z" fill="#D7E9FF" /><path d="M56.112 744.1v-64.296H8.124v64.296c0 26.4 21.596 47.988 47.988 47.988H104.1c-26.392 0-47.988-21.588-47.988-47.988zM1015.876 679.802v64.296c0 26.4-21.586 47.988-47.988 47.988H512v-32.304c13.278 0 23.992-10.716 23.992-23.994s-10.714-23.994-23.992-23.994v-31.992h503.876z" fill="#FFFFFF" /><path d="M512 711.794c13.278 0 23.992 10.716 23.992 23.994s-10.714 23.994-23.992 23.994-23.994-10.716-23.994-23.994 10.716-23.994 23.994-23.994z" fill="#94C1FF" /><path d="M1015.876 744.1v31.68c0 27.026-20.96 47.988-47.988 47.988H56.114c-27.032 0-47.988-20.962-47.988-47.988v-31.68c0 26.4 21.596 47.988 47.988 47.988h911.772c26.404 0 47.99-21.588 47.99-47.988zM615.816 823.768l31.992 143.964H376.19l31.992-143.964h207.634z" fill="#D7E9FF" /><path d="M24.518 779.886c-9.958-8.808-16.394-21.526-16.394-35.788v31.68c0 27.026 20.956 47.988 47.988 47.988h15.996c-25.618 0.002-45.542-18.9-47.59-43.88z" fill="#FFFFFF" /><path d="M999.472 779.886c-2.032 24.978-21.96 43.88-47.582 43.88h15.996c27.028 0 47.988-20.962 47.988-47.988v-31.68c0.002 14.264-6.432 26.98-16.402 35.788z" fill="#94C1FF" /><path d="M512 759.784v32.304H56.112c-26.392 0-47.988-21.588-47.988-47.988v-64.296H512v31.992c-13.278 0-23.994 10.716-23.994 23.994s10.716 23.994 23.994 23.994z" fill="#FFFFFF" /><path d="M1015.876 104.256v575.546H8.124V104.256c0-26.382 21.596-47.988 47.988-47.988h911.774c26.404 0 47.99 21.606 47.99 47.988z m-47.99 527.558V103.944H56.112v527.87h911.774z" fill="#94C1FF" /><path d="M72.108 56.268h-15.996c-26.392 0-47.988 21.606-47.988 47.988v575.546h15.996V104.256c0-26.382 21.596-47.988 47.988-47.988z" fill="#D7E9FF" /><path d="M967.886 56.268h-15.996c26.402 0 47.988 21.606 47.988 47.988v575.546h15.996V104.256c0.002-26.382-21.584-47.988-47.988-47.988z" fill="#5C9EFF" /><path d="M619.378 839.764l-3.562-15.996H408.182l-3.554 15.996h214.75zM603.368 839.764l28.446 127.968h15.996l-28.446-127.968h-15.996z" fill="#94C1FF" /><path d="M420.632 839.764l-28.446 127.968h-15.996l28.446-127.968h15.996z" fill="#FFFFFF" /><path d="M1015.876 687.8H8.124c-4.42 0-7.998-3.578-7.998-7.998s3.578-7.998 7.998-7.998h1007.75c4.422 0 8 3.578 8 7.998s-3.578 7.998-7.998 7.998zM512 767.782c-17.644 0-31.992-14.356-31.992-31.992 0-17.652 14.348-31.992 31.992-31.992 17.652 0 31.992 14.34 31.992 31.992 0 17.636-14.34 31.992-31.992 31.992z m0-47.99c-8.818 0-15.996 7.17-15.996 15.996 0 8.81 7.178 15.996 15.996 15.996 8.816 0 15.996-7.186 15.996-15.996 0-8.826-7.18-15.996-15.996-15.996zM376.198 975.73a8.01 8.01 0 0 1-7.818-9.732l31.992-143.964c0.96-4.31 5.288-6.982 9.544-6.076a8.004 8.004 0 0 1 6.078 9.542L384 969.464a8.016 8.016 0 0 1-7.802 6.266zM647.808 975.73a8.018 8.018 0 0 1-7.808-6.266l-31.992-143.964a8.002 8.002 0 0 1 6.078-9.542c4.292-0.922 8.59 1.766 9.542 6.076l31.992 143.964a8.012 8.012 0 0 1-7.812 9.732z" fill="#116FFF" /><path d="M671.96 975.73H352.04a7.994 7.994 0 0 1-7.998-7.998 7.992 7.992 0 0 1 7.998-7.998h319.92a7.99 7.99 0 0 1 7.996 7.998 7.99 7.99 0 0 1-7.996 7.998zM967.886 639.812H56.112a7.994 7.994 0 0 1-7.998-7.998V103.944a7.994 7.994 0 0 1 7.998-7.998h911.774c4.422 0 8 3.578 8 7.998v527.872a7.994 7.994 0 0 1-8 7.996z m-903.776-15.996h895.78V111.942H64.11v511.874z" fill="#116FFF" /><path d="M967.886 143.934H56.112a7.994 7.994 0 0 1-7.998-7.998 7.994 7.994 0 0 1 7.998-7.998h911.774c4.422 0 8 3.578 8 7.998a7.994 7.994 0 0 1-8 7.998z" fill="#116FFF" /><path d="M120.096 143.934a7.994 7.994 0 0 1-7.998-7.998V103.944c0-4.42 3.578-7.998 7.998-7.998s7.998 3.578 7.998 7.998v31.992a7.992 7.992 0 0 1-7.998 7.998zM184.082 143.934a7.994 7.994 0 0 1-7.998-7.998V103.944a7.994 7.994 0 0 1 7.998-7.998 7.994 7.994 0 0 1 7.998 7.998v31.992a7.994 7.994 0 0 1-7.998 7.998zM248.066 143.934a7.994 7.994 0 0 1-7.998-7.998V103.944a7.994 7.994 0 0 1 7.998-7.998 7.994 7.994 0 0 1 7.998 7.998v31.992a7.994 7.994 0 0 1-7.998 7.998zM312.05 143.934a7.992 7.992 0 0 1-7.998-7.998V103.944a7.994 7.994 0 0 1 7.998-7.998 7.994 7.994 0 0 1 7.998 7.998v31.992a7.994 7.994 0 0 1-7.998 7.998zM376.034 143.934a7.992 7.992 0 0 1-7.998-7.998V103.944a7.994 7.994 0 0 1 7.998-7.998 7.994 7.994 0 0 1 7.998 7.998v31.992a7.994 7.994 0 0 1-7.998 7.998zM935.894 143.934a7.992 7.992 0 0 1-7.996-7.998V103.944a7.994 7.994 0 0 1 7.996-7.998c4.422 0 8 3.578 8 7.998v31.992a7.994 7.994 0 0 1-8 7.998zM903.902 143.934a7.992 7.992 0 0 1-7.996-7.998V103.944a7.994 7.994 0 0 1 7.996-7.998c4.422 0 8 3.578 8 7.998v31.992a7.994 7.994 0 0 1-8 7.998zM855.914 143.934a7.992 7.992 0 0 1-7.996-7.998V103.944a7.994 7.994 0 0 1 7.996-7.998c4.422 0 8 3.578 8 7.998v31.992a7.994 7.994 0 0 1-8 7.998zM823.922 143.934a7.992 7.992 0 0 1-7.996-7.998V103.944a7.994 7.994 0 0 1 7.996-7.998c4.422 0 8 3.578 8 7.998v31.992a7.994 7.994 0 0 1-8 7.998zM791.93 143.934a7.992 7.992 0 0 1-7.996-7.998V103.944a7.994 7.994 0 0 1 7.996-7.998c4.422 0 8 3.578 8 7.998v31.992a7.994 7.994 0 0 1-8 7.998zM759.938 143.934a7.992 7.992 0 0 1-7.996-7.998V103.944a7.994 7.994 0 0 1 7.996-7.998c4.422 0 8 3.578 8 7.998v31.992a7.994 7.994 0 0 1-8 7.998zM727.946 143.934a7.992 7.992 0 0 1-7.996-7.998V103.944a7.994 7.994 0 0 1 7.996-7.998c4.422 0 8 3.578 8 7.998v31.992a7.994 7.994 0 0 1-8 7.998zM384.032 559.832a7.994 7.994 0 0 1-7.998-7.998v-55.986h-63.984v55.986a7.994 7.994 0 0 1-7.998 7.998 7.994 7.994 0 0 1-7.998-7.998v-63.984a7.994 7.994 0 0 1 7.998-7.998h79.98a7.994 7.994 0 0 1 7.998 7.998v63.984a7.994 7.994 0 0 1-7.998 7.998zM607.976 575.828a8 8 0 0 1-7.156-4.422l-32.836-65.67-32.832 65.67a8 8 0 0 1-14.312-7.152l39.992-79.982c2.718-5.42 11.59-5.42 14.308 0l39.988 79.982a8.006 8.006 0 0 1-3.574 10.73 8.074 8.074 0 0 1-3.578 0.844zM707.172 559.832c-0.532 0-1.062-0.046-1.594-0.156a8.02 8.02 0 0 1-6.266-9.42l10.89-54.408h-60.488l10.89 54.408a8.02 8.02 0 0 1-6.266 9.42 7.97 7.97 0 0 1-9.418-6.28l-12.796-63.984a8.02 8.02 0 0 1 1.656-6.638 8.032 8.032 0 0 1 6.188-2.922h79.98c2.406 0 4.656 1.078 6.184 2.922a8.02 8.02 0 0 1 1.656 6.638l-12.792 63.984a8.006 8.006 0 0 1-7.824 6.436zM484.328 564.144a7.996 7.996 0 0 1-5.654-13.654c1.188-1.186 2.1-2.388 3.014-3.56 9.388-12.608 8.13-30.602-3.014-41.756-12.49-12.342-32.828-12.374-45.348 0.032-11.114 11.124-12.372 29.118-2.89 41.85 0.82 1.046 1.734 2.25 2.92 3.436a7.996 7.996 0 1 1-11.31 11.31c-1.688-1.688-3.024-3.376-4.342-5.062-14.286-19.182-12.38-46.16 4.342-62.876 18.746-18.556 49.208-18.542 67.904-0.032 16.754 16.746 18.66 43.724 4.468 62.782-1.414 1.812-2.75 3.5-4.438 5.188a7.96 7.96 0 0 1-5.652 2.342z" fill="#116FFF" /><path d="M768.25 607.82a1.02 1.02 0 0 0-0.312 0H256.064a7.98 7.98 0 0 1-7.052-4.234 7.994 7.994 0 0 1 0.398-8.2l31.992-47.988a7.982 7.982 0 0 1 6.656-3.562h15.996a7.994 7.994 0 0 1 7.998 7.998v7.998h63.984v-7.998a7.994 7.994 0 0 1 7.998-7.998h39.99c2.458 0 4.936 1.124 6.452 3.062 1.196 1.532 2.132 2.732 3.194 3.936 11.466 11.294 32.882 11.654 45.036-0.376 0.718-0.828 1.656-2.03 2.584-3.232 1.514-1.938 4.1-3.39 6.562-3.39h40.146a7.992 7.992 0 0 1 7.996 7.998v7.998h63.984v-7.998a7.994 7.994 0 0 1 8-7.998h44.786a8 8 0 0 1 7.844 6.42l1.922 9.576h34.864l1.922-9.576a8 8 0 0 1 7.844-6.42h28.79c2.672 0 5.172 1.328 6.652 3.562l30.964 46.426a7.988 7.988 0 0 1 2.684 5.998 7.998 7.998 0 0 1-8 7.998z m-497.246-15.996h482l-21.34-31.992h-17.964l-1.906 9.56a7.994 7.994 0 0 1-7.84 6.436h-47.988a7.998 7.998 0 0 1-7.844-6.436l-1.902-9.56h-30.246v7.998a7.992 7.992 0 0 1-7.996 7.998h-79.98c-4.422 0-8-3.578-8-7.998v-7.998h-28.288c-0.468 0.562-0.93 1.094-1.414 1.64-18.854 18.73-50.05 18.356-68.216 0.36a73.686 73.686 0 0 1-1.742-2h-28.304v7.998a7.994 7.994 0 0 1-7.998 7.998h-79.98a7.994 7.994 0 0 1-7.998-7.998v-7.998h-3.718l-21.336 31.992zM344.042 367.878h-143.964a7.994 7.994 0 0 1-7.998-7.998v-95.976a7.994 7.994 0 0 1 7.998-7.998 7.994 7.994 0 0 1 7.998 7.998v87.978h127.968v-79.98h-55.986a7.992 7.992 0 0 1-7.998-7.998 7.994 7.994 0 0 1 7.998-7.998h63.984a7.994 7.994 0 0 1 7.998 7.998v95.976a7.994 7.994 0 0 1-7.998 7.998z" fill="#116FFF" /><path d="M280.058 271.902h-79.98a8 8 0 0 1-7.154-11.574l15.996-31.992a7.988 7.988 0 0 1 7.154-4.422h63.984a7.994 7.994 0 0 1 7.998 7.998v31.992a7.994 7.994 0 0 1-7.998 7.998z m-67.04-15.996h59.042v-15.996h-51.042l-8 15.996zM328.046 399.872h-111.972a7.994 7.994 0 0 1-7.998-7.998 7.994 7.994 0 0 1 7.998-7.998h111.972a7.994 7.994 0 0 1 7.998 7.998 7.994 7.994 0 0 1-7.998 7.998zM583.98 367.878h-143.962a7.992 7.992 0 0 1-7.998-7.998v-95.976a7.994 7.994 0 0 1 7.998-7.998 7.994 7.994 0 0 1 7.998 7.998v87.978h127.968v-79.98h-55.988a7.992 7.992 0 0 1-7.996-7.998 7.994 7.994 0 0 1 7.996-7.998h63.984c4.422 0 8 3.578 8 7.998v95.976a7.994 7.994 0 0 1-8 7.998z" fill="#116FFF" /><path d="M519.996 271.902h-79.978a8.004 8.004 0 0 1-7.156-11.574l15.996-31.992a7.988 7.988 0 0 1 7.156-4.422h63.982c4.422 0 8 3.578 8 7.998v31.992a7.994 7.994 0 0 1-8 7.998z m-67.036-15.996H512v-15.996h-51.042l-7.998 15.996zM567.984 399.872h-111.97a7.992 7.992 0 0 1-7.998-7.998 7.994 7.994 0 0 1 7.998-7.998h111.97c4.422 0 8 3.578 8 7.998a7.994 7.994 0 0 1-8 7.998zM823.922 367.878h-143.964a7.992 7.992 0 0 1-7.996-7.998v-95.976a7.994 7.994 0 0 1 7.996-7.998c4.422 0 8 3.578 8 7.998v87.978h127.968v-79.98h-55.988a7.992 7.992 0 0 1-7.996-7.998 7.994 7.994 0 0 1 7.996-7.998h63.984c4.422 0 8 3.578 8 7.998v95.976a7.994 7.994 0 0 1-8 7.998z" fill="#116FFF" /><path d="M759.938 271.902h-79.98a8.016 8.016 0 0 1-6.808-3.794 7.978 7.978 0 0 1-0.344-7.78l15.996-31.992a7.988 7.988 0 0 1 7.152-4.422h63.984c4.422 0 8 3.578 8 7.998v31.992a7.994 7.994 0 0 1-8 7.998z m-67.044-15.996h59.046v-15.996h-51.05l-7.996 15.996zM807.926 399.872h-111.972a7.992 7.992 0 0 1-7.996-7.998 7.994 7.994 0 0 1 7.996-7.998h111.972c4.422 0 8 3.578 8 7.998a7.994 7.994 0 0 1-8 7.998z" fill="#116FFF" /><path d="M967.886 800.086H56.112c-30.868 0-55.986-25.12-55.986-55.986v-0.156V104.256c0-30.868 25.12-55.986 55.986-55.986h911.774c30.868 0 55.988 25.12 55.988 55.986V744.1c0.002 30.866-25.12 55.986-55.988 55.986zM16.122 743.944v0.156c0 22.056 17.942 39.99 39.99 39.99h911.774c22.058 0 39.992-17.934 39.992-39.99V104.256c0-22.042-17.934-39.99-39.992-39.99H56.112c-22.048 0-39.99 17.95-39.99 39.99v639.688z" fill="#116FFF" /><path d="M967.886 831.766H56.112c-31.39 0-55.986-24.604-55.986-55.986v-31.68c0-4.42 3.578-8.154 7.998-8.154s7.998 3.422 7.998 7.842v31.992c0 22.792 17.192 39.99 39.99 39.99h911.774c22.808 0 39.992-17.2 39.992-39.99v-31.68a7.994 7.994 0 0 1 7.996-7.998c4.422 0 8 3.578 8 7.998v31.68c0.002 31.382-24.588 55.986-55.988 55.986z" fill="#116FFF" /><path d="M88.582 127.938c-4.414 0-8.076-3.576-8.076-7.998 0-4.42 3.5-7.998 7.92-7.998h0.156a7.994 7.994 0 0 1 7.998 7.998 7.994 7.994 0 0 1-7.998 7.998z" fill="#116FFF" /></svg>